<svg width="22" height="20" viewBox="0 0 22 20" fill="none" xmlns="http://www.w3.org/2000/svg">
<g id="Group 39974">
<circle id="Vector" cx="11.1745" cy="11.4356" r="2.92294" stroke="#438AFE" stroke-width="1.46147"/>
<path id="Vector_2" opacity="0.5" d="M9.00927 19.2302H13.3396C16.3804 19.2302 17.9008 19.2302 18.993 18.5136C19.4659 18.2035 19.8718 17.8049 20.1878 17.3406C20.9176 16.2683 20.9176 14.7755 20.9176 11.7899C20.9176 8.80437 20.9176 7.31158 20.1878 6.23924C19.8718 5.77501 19.4659 5.37643 18.993 5.06624C18.2912 4.60583 17.4126 4.44127 16.0674 4.38245C15.4255 4.38245 14.8728 3.90486 14.7469 3.28684C14.5581 2.3598 13.729 1.6925 12.7661 1.6925H9.58272C8.61981 1.6925 7.79077 2.3598 7.60193 3.28684C7.47604 3.90486 6.92334 4.38245 6.28141 4.38245C4.93621 4.44127 4.05759 4.60583 3.35578 5.06624C2.88296 5.37643 2.47699 5.77501 2.16106 6.23924C1.43127 7.31158 1.43127 8.80437 1.43127 11.7899C1.43127 14.7755 1.43127 16.2683 2.16106 17.3406C2.47699 17.8049 2.88296 18.2035 3.35578 18.5136C4.44798 19.2302 5.96841 19.2302 9.00927 19.2302Z" stroke="#438AFE" stroke-width="1.46147"/>
<path id="Vector_3" d="M17.9948 8.5127H17.0204" stroke="#438AFE" stroke-width="1.46147" stroke-linecap="round"/>
</g>
</svg>
