<svg width="36" height="36" viewBox="0 0 36 36" fill="none" xmlns="http://www.w3.org/2000/svg">
<g id="sd 1" clip-path="url(#clip0_2_6295)">
<g id="Group">
<g id="Group_2">
<path id="Vector" fill-rule="evenodd" clip-rule="evenodd" d="M26.6587 35.8889H9.15869C6.83805 35.8889 4.61245 34.967 2.97151 33.326C1.33056 31.6851 0.408691 29.4595 0.408691 27.1389V9.63885C0.408691 7.31821 1.33056 5.09261 2.97151 3.45167C4.61245 1.81073 6.83805 0.888855 9.15869 0.888855L26.6587 0.888855C28.9793 0.888855 31.2049 1.81073 32.8459 3.45167C34.4868 5.09261 35.4087 7.31821 35.4087 9.63885V27.1389C35.4087 29.4595 34.4868 31.6851 32.8459 33.326C31.2049 34.967 28.9793 35.8889 26.6587 35.8889Z" fill="#DEEBF5"/>
<path id="Vector_2" fill-rule="evenodd" clip-rule="evenodd" d="M16.8149 10.7326H26.6587C27.9215 10.7342 29.1366 10.2503 30.0527 9.38109C30.9688 8.51186 31.5157 7.32378 31.5803 6.06261C31.6449 4.80144 31.2223 3.56368 30.3999 2.60537C29.5775 1.64705 28.4182 1.04152 27.1618 0.914011C26.9945 0.904714 26.8288 0.888855 26.6587 0.888855H9.15869C6.83805 0.888855 4.61245 1.81073 2.97151 3.45167C1.33056 5.09261 0.408691 7.31821 0.408691 9.63885L0.408691 27.1389C0.408691 22.7876 2.1372 18.6147 5.21397 15.5379C8.29074 12.4611 12.4637 10.7326 16.8149 10.7326Z" fill="#F0FAFF"/>
<path id="Vector_3" fill-rule="evenodd" clip-rule="evenodd" d="M26.6587 18.3889C24.9281 18.3889 23.2364 18.902 21.7975 19.8635C20.3585 20.825 19.237 22.1915 18.5747 23.7904C17.9125 25.3892 17.7392 27.1486 18.0768 28.8459C18.4144 30.5432 19.2478 32.1023 20.4715 33.326C21.6952 34.5497 23.2543 35.3831 24.9517 35.7207C26.649 36.0583 28.4083 35.8851 30.0072 35.2228C31.606 34.5605 32.9726 33.439 33.9341 32.0001C34.8955 30.5612 35.4087 28.8694 35.4087 27.1389V9.63885C35.4087 11.9595 34.4868 14.1851 32.8459 15.826C31.2049 17.467 28.9793 18.3889 26.6587 18.3889Z" fill="#CDDCEB"/>
</g>
<path id="Vector_4" d="M28.8462 18.6453C28.8462 18.2193 28.8265 17.7917 28.7866 17.3667C28.7605 17.0966 28.6346 16.8458 28.4336 16.6634C28.2326 16.481 27.9708 16.38 27.6994 16.3802C25.7443 16.378 21.2911 16.378 19.2228 16.378C18.9328 16.378 18.6546 16.4932 18.4494 16.6983C18.2443 16.9035 18.1291 17.1817 18.1291 17.4717V19.581C18.1291 19.8711 18.2443 20.1493 18.4494 20.3544C18.6546 20.5596 18.9328 20.6748 19.2228 20.6748H24.1557C24.0323 21.3613 23.771 22.0157 23.3877 22.5984C23.0044 23.1812 22.507 23.6802 21.9255 24.0654V24.0665C21.9255 24.8056 22.2191 25.5145 22.7418 26.0371C23.2644 26.5598 23.9732 26.8534 24.7124 26.8534H25.5212C27.6327 24.9103 28.8462 22.0403 28.8462 18.6453Z" fill="#1E78FF"/>
<path id="Vector_5" d="M18.1291 29.5473C20.8475 29.6237 23.4926 28.6603 25.525 26.8534L21.9299 24.0654C21.064 24.6196 20.0833 24.9693 19.0621 25.0879C18.0409 25.2064 17.0062 25.0908 16.0364 24.7498C15.0665 24.4087 14.1872 23.8512 13.465 23.1195C12.7428 22.3879 12.1968 21.5013 11.8685 20.5271H11.0312C10.2692 20.5273 9.53845 20.83 8.99964 21.3689C8.46082 21.9077 8.15806 22.6384 8.15791 23.4004V23.4015C9.08731 25.2492 10.5118 26.8023 12.2725 27.8875C14.0332 28.9727 16.0608 29.5473 18.1291 29.5473Z" fill="#00B450"/>
<path id="Vector_6" d="M11.8646 20.5271C11.3971 19.1416 11.3971 17.641 11.8646 16.2555V16.2544C11.8645 15.4924 11.5617 14.7617 11.0229 14.2228C10.4841 13.684 9.75334 13.3813 8.99135 13.3811H8.15791C7.37767 14.936 6.97136 16.6516 6.97136 18.3913C6.97136 20.131 7.37767 21.8466 8.15791 23.4015L11.8646 20.5271Z" fill="#FFB400"/>
<path id="Vector_7" d="M18.1291 11.647C19.3998 11.627 20.6448 12.0061 21.6887 12.7309C21.8959 12.8817 22.1501 12.9536 22.4056 12.9335C22.6611 12.9135 22.901 12.8028 23.0821 12.6215C23.5825 12.1468 24.2404 11.4889 24.7589 10.9705C24.8688 10.8606 24.9541 10.7285 25.009 10.5831C25.0639 10.4376 25.0871 10.2821 25.0772 10.127C25.0672 9.97184 25.0243 9.82059 24.9513 9.68333C24.8784 9.54607 24.7769 9.42595 24.6539 9.33097C22.7638 7.94288 20.474 7.20611 18.1291 7.23152C16.0603 7.23125 14.0322 7.80622 12.2714 8.8922C10.5105 9.97817 9.08633 11.5324 8.15791 13.3811L11.8646 16.2555C12.2961 14.9289 13.1324 13.7709 14.2561 12.9443C15.3798 12.1177 16.7342 11.664 18.1291 11.647Z" fill="#E60014"/>
</g>
</g>
<defs>
<clipPath id="clip0_2_6295">
<rect width="35" height="35" fill="white" transform="translate(0.408691 0.888855)"/>
</clipPath>
</defs>
</svg>
