<svg width="16" height="17" viewBox="0 0 16 17" fill="none" xmlns="http://www.w3.org/2000/svg">
<g id="Group 39939">
<path id="Vector" d="M8 5.69531V8.69531L9.875 10.5703" stroke="#BFBFAF" stroke-width="1.5" stroke-linecap="round" stroke-linejoin="round"/>
<path id="Vector_2" d="M12.7969 3.89842L13.504 3.19131L13.504 3.19131L12.7969 3.89842ZM13.7467 4.8482L14.7467 4.85323C14.7439 5.40159 14.3001 5.84543 13.7517 5.84819L13.7467 4.8482ZM11.8425 5.85778C11.2903 5.86056 10.8403 5.4151 10.8375 4.86282C10.8348 4.31054 11.2802 3.86059 11.8325 3.85781L11.8425 5.85778ZM12.7563 2.93401C12.7591 2.38174 13.209 1.93628 13.7613 1.93905C14.3136 1.94183 14.759 2.39179 14.7563 2.94406L12.7563 2.93401ZM13.6966 7.84341C13.6216 7.29625 14.0044 6.79188 14.5515 6.71688C15.0987 6.64188 15.6031 7.02465 15.6781 7.57182L13.6966 7.84341ZM2.54397 3.23928C5.57703 0.206221 10.484 0.171344 13.504 3.19131L12.0898 4.60552C9.86424 2.37997 6.22363 2.38805 3.95818 4.65349L2.54397 3.23928ZM13.456 14.1513C10.423 17.1844 5.51597 17.2193 2.496 14.1993L3.91021 12.7851C6.13576 15.0107 9.77637 15.0026 12.0418 12.7371L13.456 14.1513ZM2.496 14.1993C-0.523967 11.1793 -0.489092 6.27234 2.54397 3.23928L3.95818 4.65349C1.69274 6.91894 1.68466 10.5595 3.91021 12.7851L2.496 14.1993ZM13.504 3.19131L14.4538 4.1411L13.0396 5.55531L12.0898 4.60552L13.504 3.19131ZM13.7517 5.84819L11.8425 5.85778L11.8325 3.85781L13.7417 3.84822L13.7517 5.84819ZM12.7467 4.84318L12.7563 2.93401L14.7563 2.94406L14.7467 4.85323L12.7467 4.84318ZM15.6781 7.57182C15.9971 9.89911 15.254 12.3533 13.456 14.1513L12.0418 12.7371C13.3821 11.3968 13.9337 9.57287 13.6966 7.84341L15.6781 7.57182Z" fill="#BFBFAF"/>
</g>
</svg>
