<?xml version="1.0" encoding="UTF-8" standalone="no"?>
<svg
   version="1.1"
   width="500"
   height="500"
   style="clip-rule:evenodd;fill-rule:evenodd;image-rendering:optimizeQuality;shape-rendering:geometricPrecision;text-rendering:geometricPrecision"
   id="svg40"
   sodipodi:docname="logo.6732f48a (1).svg"
   inkscape:export-filename="..\..\Downloads\logo.6732f48a (1).svg"
   inkscape:export-xdpi="96"
   inkscape:export-ydpi="96"
   xmlns:inkscape="http://www.inkscape.org/namespaces/inkscape"
   xmlns:sodipodi="http://sodipodi.sourceforge.net/DTD/sodipodi-0.dtd"
   xmlns="http://www.w3.org/2000/svg"
   xmlns:svg="http://www.w3.org/2000/svg">
  <defs
     id="defs44" />
  <sodipodi:namedview
     id="namedview42"
     pagecolor="#ffffff"
     bordercolor="#000000"
     borderopacity="0.25"
     inkscape:showpageshadow="2"
     inkscape:pageopacity="0.0"
     inkscape:pagecheckerboard="0"
     inkscape:deskcolor="#d1d1d1"
     showgrid="false"
     inkscape:zoom="1.658"
     inkscape:cx="425.81423"
     inkscape:cy="226.77925"
     inkscape:window-width="1920"
     inkscape:window-height="1009"
     inkscape:window-x="-8"
     inkscape:window-y="-8"
     inkscape:window-maximized="1"
     inkscape:current-layer="svg40" />
  <g
     id="g26">
    <path
       style="opacity:0.984"
       fill="#4389ff"
       d="m 226.5,8.5 c 91.608,-5.10219 165.108,28.5645 220.5,101 49.02,73.896 57.353,152.229 25,235 C 434.858,425.281 372.358,473.447 284.5,489 194.269,499.105 119.769,469.939 61,401.5 8.72778,332.312 -4.93889,255.979 20,172.5 48.4108,93.756 102.577,41.9226 182.5,17 c 14.62,-3.8219 29.287,-6.6552 44,-8.5 z m 16,23 c 76.239,0.0384 137.405,30.0384 183.5,90 43.093,63.509 52.093,131.509 27,204 C 424.338,395.423 373.505,440.256 300.5,460 216.689,476.768 145.522,454.268 87,392.5 34.0705,328.287 20.0705,256.287 45,176.5 72.3647,104.556 123.198,58.3895 197.5,38 c 14.949,-3.5742 29.949,-5.7408 45,-6.5 z"
       id="path24" />
  </g>
  <g
     id="g30">
    <path
       style="opacity:0.997"
       fill="#4389fe"
       d="m 276.5,385.5 c -55.75486,-16.67227 15.69267,1.31612 -56,-14 -10.126,-6.962 -17.959,-15.962 -23.5,-27 -13.164,11 -28.331,17 -45.5,18 -21.191,-1.015 -35.025,-11.682 -41.5,-32 -2.194,-14.222 0.806,-27.222 9,-39 4.481,-6.479 9.648,-12.312 15.5,-17.5 -14.234,-11.227 -25.068,-25.06 -32.5,-41.5 -4.8144,-23.58 4.019,-40.08 26.5,-49.5 7.18,-2.462 14.513,-4.295 22,-5.5 -8.461,-12.716 -13.127,-26.716 -14,-42 3.918,-26.749 19.418,-40.0822 46.5,-40 4.526,0.1415 9.026,0.4748 13.5,1 3.722,-27.5619 19.389,-40.0619 47,-37.5 7.012,1.5871 12.845,5.0871 17.5,10.5 3.658,5.6476 6.491,11.6476 8.5,18 18.811,-6.7517 36.478,-4.5851 53,6.5 7.979,7.756 11.979,17.256 12,28.5 -0.838,6.037 -1.838,12.037 -3,18 28.326,1.524 48.826,14.857 61.5,40 5.303,18.306 4.303,36.306 -3,54 -4.463,10.615 -9.963,20.615 -16.5,30 13.478,13.597 17.645,29.597 12.5,48 -4.939,8.272 -11.772,14.439 -20.5,18.5 -11.815,5.204 -24.149,8.37 -37,9.5 1.461,11.602 -2.539,21.102 -12,28.5 -12.044,8.519 -25.377,14.019 -40,16.5 z"
       id="path28"
       sodipodi:nodetypes="ccccccccccccccccccccccccccc" />
  </g>
  <g
     id="g38">
    <path
       style="opacity:0.998"
       fill="#3f51b5"
       d="M 272.33787,165.38764 C 265.77187,175.50364 257.1,187.616 250,197.5 c 2.491,36.421 6.158,72.754 11,109 0.526,2.772 1.359,5.438 2.5,8 10.767,-6.599 19.767,-15.099 27,-25.5 3.063,1.177 6.396,1.677 10,1.5 -4.951,20.921 -16.117,37.587 -33.5,50 1.565,15.323 4.731,30.323 9.5,45 4.129,14.241 10.629,27.241 19.5,39 0.667,0.667 0.667,1.333 0,2 -7.956,5.689 -16.456,6.856 -25.5,3.5 -5.276,-2.888 -10.109,-6.388 -14.5,-10.5 -3.745,7.824 -7.745,15.491 -12,23 -4,-7.333 -8,-14.667 -12,-22 -2.626,2.731 -5.793,4.564 -9.5,5.5 -6,0.667 -12,0.667 -18,0 -2.862,-0.27 -5.528,-1.104 -8,-2.5 12.028,-15.394 20.028,-32.727 24,-52 7.003,-27.182 10.503,-54.848 10.5,-83 -1.833,-1.167 -3.667,-2.333 -5.5,-3.5 -8.749,-8.744 -16.749,-18.078 -24,-28 -6.83,-3.581 -13.497,-7.414 -20,-11.5 0.032,-0.13351 -0.57143,-1.13201 -0.18416,-1.03189 0.49637,0.12833 2.33746,1.58706 2.83686,1.71991 5.5929,1.48775 11.37555,3.25841 17.3473,5.31198 0.333,-0.5 0.667,-1 1,-1.5 -0.667,-1.667 -1.333,-3.333 -2,-5 0.5513,-0.96196 1.71255,-1.33294 2.36399,-2.23257 0.67791,-0.9362 0.85017,-2.39847 1.63601,-3.26743 36.22796,61.06979 28.27051,-31.52949 27.5,-59 -0.934,-2.636 -1.768,-5.303 -2.5,-8 1.039,-2.031 2.705,-3.364 5,-4 3.755,6.509 7.255,13.176 10.5,20 6.50623,-7.87171 13.29777,-14.37613 21.85436,-19.41424 0.53675,-0.31604 1.5925,-0.67356 2.75649,-1.33226 0.73815,-0.41772 1.81083,-1.75957 2.53227,-2.37469 0.1667,-0.14213 0.0139,0.13228 0.19475,0.009 z"
       id="path36"
       sodipodi:nodetypes="ccccccccccccccccccccccsscccscccccsssc" />
  </g>
</svg>
