<svg width="31" height="32" viewBox="0 0 31 32" fill="none" xmlns="http://www.w3.org/2000/svg">
<g id="Group 39945">
<path id="Vector" d="M1.21533 16.0552C1.21533 9.23017 1.21533 5.81766 3.33559 3.69741C5.45585 1.57715 8.86835 1.57715 15.6934 1.57715C22.5184 1.57715 25.9309 1.57715 28.0511 3.69741C30.1714 5.81766 30.1714 9.23017 30.1714 16.0552C30.1714 22.8802 30.1714 26.2927 28.0511 28.4129C25.9309 30.5332 22.5184 30.5332 15.6934 30.5332C8.86835 30.5332 5.45585 30.5332 3.33559 28.4129C1.21533 26.2927 1.21533 22.8802 1.21533 16.0552Z" stroke="#B3C6D1" stroke-width="1.5"/>
<circle id="Vector_2" cx="21.4845" cy="10.2638" r="2.89561" stroke="#B3C6D1" stroke-width="1.5"/>
<path id="Vector_3" d="M1.21533 13.382L2.63524 13.1781C12.7383 11.7274 21.3742 20.4437 19.8299 30.5329" stroke="#B3C6D1" stroke-width="1.5" stroke-linecap="round"/>
<path id="Vector_4" d="M30.1713 18.0601L28.762 17.865C24.6448 17.2949 20.9195 19.3447 19.001 22.5708" stroke="#B3C6D1" stroke-width="1.5" stroke-linecap="round"/>
</g>
</svg>
