<svg width="13" height="15" viewBox="0 0 13 15" fill="none" xmlns="http://www.w3.org/2000/svg">
<path d="M7.71574 9.11105C7.71574 8.00741 8.61042 7.11273 9.71406 7.11273C10.8177 7.11273 11.7124 8.00741 11.7124 9.11105C11.7124 10.2147 10.8177 11.1094 9.71406 11.1094C8.61042 11.1094 7.71574 10.2147 7.71574 9.11105Z" stroke="#5E6E71" stroke-width="0.999161"/>
<path d="M1.05461 5.78055C1.05461 6.88419 1.94929 7.77887 3.05293 7.77887C4.15657 7.77887 5.05125 6.88419 5.05125 5.78055C5.05125 4.67691 4.15657 3.78223 3.05293 3.78223C1.94929 3.78223 1.05461 4.67691 1.05461 5.78055Z" stroke="#5E6E71" stroke-width="0.999161"/>
<path d="M9.68628 5.44727L9.68628 0.784515" stroke="#5E6E71" stroke-width="0.999161" stroke-linecap="round"/>
<path d="M3.02515 9.44336L3.02515 14.1061" stroke="#5E6E71" stroke-width="0.999161" stroke-linecap="round"/>
<path d="M9.68628 14.1064L9.68628 12.7742" stroke="#5E6E71" stroke-width="0.999161" stroke-linecap="round"/>
<path d="M3.02515 0.78418L3.02515 2.11639" stroke="#5E6E71" stroke-width="0.999161" stroke-linecap="round"/>
</svg>
