<svg width="37" height="36" viewBox="0 0 37 36" fill="none" xmlns="http://www.w3.org/2000/svg">
    <path d="M0.59082 17.2867C0.59082 9.58514 0.59082 5.73433 3.07908 3.34177C5.56734 0.949219 9.57218 0.949219 17.5818 0.949219H19.0592C27.0689 0.949219 31.0737 0.949219 33.562 3.34177C36.0503 5.73433 36.0503 9.58514 36.0503 17.2867V18.7073C36.0503 26.4089 36.0503 30.2597 33.562 32.6522C31.0738 35.0449 27.0689 35.0449 19.0593 35.0449H17.5819C9.57225 35.0449 5.56741 35.0449 3.07915 32.6523C0.59082 30.2598 0.59082 26.4089 0.59082 18.7074V17.2867Z"
          fill="#2787F5"/>
    <path fill-rule="evenodd" clip-rule="evenodd"
          d="M10.195 11.6042H7.60886C6.86996 11.6042 6.72217 11.9387 6.72217 12.3073C6.72217 12.9659 7.59896 16.2319 10.8046 20.5514C12.9417 23.5014 15.9526 25.1004 18.6925 25.1004C20.3365 25.1004 20.5398 24.7453 20.5398 24.1335V21.9039C20.5398 21.1936 20.6956 21.0518 21.216 21.0518C21.5996 21.0518 22.2572 21.2362 23.7915 22.6585C25.5451 24.3442 25.8341 25.1004 26.8204 25.1004H29.4066C30.1456 25.1004 30.515 24.7453 30.3019 24.0444C30.0686 23.3458 29.2315 22.3323 28.1205 21.1309C27.5177 20.4461 26.6135 19.7086 26.3396 19.3398C25.956 18.8658 26.0656 18.655 26.3396 18.2337C26.3396 18.2337 29.4905 13.9667 29.8192 12.5182C29.9836 11.9914 29.8192 11.6042 29.0371 11.6042H26.4509C25.7934 11.6042 25.4902 11.9387 25.3258 12.3073C25.3258 12.3073 24.0107 15.389 22.1476 17.3908C21.5448 17.9702 21.2708 18.1546 20.942 18.1546C20.7776 18.1546 20.5397 17.9702 20.5397 17.4435V12.5182C20.5397 11.886 20.3489 11.6042 19.8008 11.6042H15.7368C15.3259 11.6042 15.0787 11.8976 15.0787 12.1757C15.0787 12.7749 16.0103 12.9131 16.1063 14.5988V18.26C16.1063 19.0626 15.9554 19.2082 15.6267 19.2082C14.7499 19.2082 12.6172 16.1127 11.3524 12.5707C11.1047 11.8823 10.856 11.6042 10.195 11.6042Z"
          fill="white"/>
</svg>
