<svg width="36" height="36" viewBox="0 0 36 36" fill="none" xmlns="http://www.w3.org/2000/svg">
<path d="M23.619 18.7105V12.6502L25.6969 11.0919C25.7034 11.0871 25.7081 11.0809 25.7144 11.0759L26.942 12.3036C27.0547 12.4163 27.2024 12.4727 27.3501 12.4727C27.4978 12.4727 27.6456 12.4163 27.7582 12.3036L35.1044 4.9573C35.158 4.90371 35.2005 4.84008 35.2296 4.77006C35.2586 4.70004 35.2735 4.62499 35.2735 4.5492C35.2735 4.47341 35.2586 4.39836 35.2296 4.32833C35.2005 4.25831 35.158 4.19469 35.1044 4.1411L31.8394 0.87623C31.6139 0.650795 31.2484 0.650795 31.0232 0.87623L23.6771 8.2225C23.6235 8.27608 23.581 8.33969 23.552 8.40971C23.523 8.47973 23.508 8.55477 23.508 8.63056C23.508 8.70635 23.523 8.7814 23.552 8.85142C23.581 8.92143 23.6235 8.98505 23.6771 9.03863L24.8914 10.2529L22.6955 11.8998C22.6239 11.9536 22.5657 12.0234 22.5256 12.1035C22.4856 12.1837 22.4647 12.272 22.4647 12.3616V18.3838L20.1359 19.7811L14.5186 16.4882C13.7063 16.012 12.6283 16.2701 12.1161 17.0636L1.83024 33.0066C1.41426 33.6514 1.59083 34.0693 1.73305 34.2611C1.83984 34.4052 2.06342 34.6051 2.48079 34.6051C2.61691 34.6051 2.77376 34.5839 2.95371 34.5323L29.0179 27.0854C29.7616 26.8728 29.8987 26.4013 29.9231 26.2085C29.9476 26.0153 29.9321 25.5238 29.2628 25.1314L21.2705 20.4462L23.3387 19.2053C23.4242 19.1541 23.495 19.0816 23.5441 18.9949C23.5932 18.9081 23.6191 18.8102 23.619 18.7105ZM31.4313 2.1006L33.88 4.5492L27.3501 11.0791L24.9015 8.63053L31.4313 2.1006ZM28.5122 26.0295L3.00329 33.3177L13.0859 17.6895C13.2061 17.5035 13.4132 17.4002 13.6228 17.4002C13.73 17.4002 13.8378 17.4273 13.9349 17.4841L28.5122 26.0295Z" fill="black" stroke="black" stroke-width="1.2"/>
</svg>
