<svg width="38" height="35" viewBox="0 0 38 35" fill="none" xmlns="http://www.w3.org/2000/svg">
<path d="M32.049 6.94007C32.6489 6.94007 33.1352 6.45378 33.1352 5.85391C33.1352 5.25404 32.6489 4.76775 32.049 4.76775C31.4492 4.76775 30.9629 5.25404 30.9629 5.85391C30.9629 6.45378 31.4492 6.94007 32.049 6.94007Z" fill="#1C274C"/>
<path d="M35.8893 2.01408C33.7983 -0.0769397 30.3467 0.107744 28.4926 2.41719L17.9219 15.2196L17.2307 14.5284C15.1132 12.4109 11.6678 12.4109 9.55042 14.5284L6.47799 17.6008C6.05469 18.0241 5.36584 18.024 4.94225 17.6004C4.51772 17.1759 4.51772 16.4889 4.94225 16.0644C5.36649 15.6403 5.36649 14.9526 4.94225 14.5284C4.51822 14.1043 3.83046 14.1043 3.40622 14.5284C3.405 14.5297 3.40377 14.5309 3.40252 14.5321L1.87018 16.0645C-0.252119 18.1867 -0.252481 21.6221 1.87018 23.7447L11.0865 32.961C13.2087 35.0834 16.644 35.0837 18.7666 32.961L23.3748 28.3528C25.497 26.2306 25.4975 22.7952 23.3748 20.6726L22.6836 19.9814L35.4865 9.4106C37.7919 7.55936 37.9836 4.10844 35.8893 2.01408ZM17.2307 31.4251C15.9573 32.6984 13.8961 32.6988 12.6225 31.4251L12.6204 31.423C13.7459 31.264 14.8308 30.7528 15.6946 29.8891C16.1187 29.4649 16.1187 28.7772 15.6946 28.353C15.2705 27.9289 14.5828 27.9289 14.1585 28.353C12.8882 29.6235 10.8211 29.6235 9.55071 28.3534L8.01222 26.8149C9.13769 26.6559 10.2226 26.1448 11.0864 25.281C11.5106 24.8568 11.5106 24.1691 11.0864 23.7449C10.6623 23.3207 9.97452 23.3208 9.55035 23.7449C8.28016 25.0152 6.2131 25.0154 4.94254 23.7453L3.40614 22.2089C2.34923 21.152 2.18655 19.5785 2.83472 18.3688C2.98645 18.6514 3.17899 18.9102 3.40614 19.1368C4.6767 20.4071 6.74376 20.4072 8.01403 19.137L10.3184 16.8326L21.0708 27.585L17.2307 31.4251ZM22.4765 25.9184L11.9862 15.4281C13.1971 14.851 14.6934 15.0632 15.6948 16.0646L21.839 22.2088C22.8598 23.2297 23.0446 24.7314 22.4765 25.9184ZM34.1223 7.72015L34.1092 7.73072L21.1407 18.4384L19.465 16.7627L30.1727 3.79409C30.1763 3.78975 30.1798 3.78541 30.1832 3.78106C31.2375 2.4633 33.182 2.37882 34.3533 3.55012C35.5243 4.7212 35.4403 6.6657 34.1223 7.72015Z" fill="#1C274C"/>
<path d="M10.1197 4.13913C8.32296 4.13913 6.86121 5.60089 6.86121 7.39762C6.86121 9.19435 8.32296 10.656 10.1197 10.656C11.9164 10.656 13.3781 9.19428 13.3781 7.39762C13.3782 5.60089 11.9164 4.13913 10.1197 4.13913ZM10.1197 8.48378C9.52076 8.48378 9.03353 7.99655 9.03353 7.39762C9.03353 6.79868 9.52076 6.31146 10.1197 6.31146C10.7186 6.31146 11.2059 6.79868 11.2059 7.39762C11.2059 7.99648 10.7186 8.48378 10.1197 8.48378ZM32.9289 19.3453C31.7311 19.3453 30.7566 20.3198 30.7566 21.5176C30.7566 22.7154 31.7311 23.6899 32.9289 23.6899C34.1267 23.6899 35.1012 22.7154 35.1012 21.5176C35.1012 20.3198 34.1267 19.3453 32.9289 19.3453ZM29.6705 30.2068H28.5843V29.1207C28.5843 28.5208 28.098 28.0345 27.4982 28.0345C26.8983 28.0345 26.412 28.5208 26.412 29.1207V30.2068H25.3258C24.726 30.2068 24.2397 30.6931 24.2397 31.293C24.2397 31.8929 24.726 32.3791 25.3258 32.3791H26.412V33.4653C26.412 34.0652 26.8983 34.5515 27.4982 34.5515C28.098 34.5515 28.5843 34.0652 28.5843 33.4653V32.3791H29.6705C30.2704 32.3791 30.7566 31.8928 30.7566 31.2929C30.7566 30.693 30.2703 30.2068 29.6705 30.2068Z" fill="#1C274C"/>
</svg>
