<svg width="29" height="31" viewBox="0 0 29 31" fill="none" xmlns="http://www.w3.org/2000/svg">
<path d="M10.0225 2.98213C8.90876 4.37437 7.23808 5.30252 5.75303 5.30252C2.22604 5.30252 -0.0943502 9.20078 1.20507 12.8206C1.94759 14.7697 1.94759 16.2548 1.20507 18.2039C-0.0943502 21.8237 2.22604 25.7219 5.75303 25.7219C7.23808 25.7219 8.90876 26.6501 10.0225 28.0423C12.4358 31.1053 16.5196 31.1053 18.9328 28.0423C20.0466 26.6501 21.7173 25.7219 23.2024 25.7219C26.7294 25.7219 29.0497 21.8237 27.7503 18.2039C27.0078 16.2548 27.0078 14.7697 27.7503 12.8206C29.0497 9.20078 26.7294 5.30252 23.2024 5.30252C21.7173 5.30252 20.0466 4.37437 18.9328 2.98213C17.7262 1.49708 16.2412 0.661742 14.4777 0.661742C12.7142 0.661742 11.2292 1.49708 10.0225 2.98213ZM16.4268 3.44621C17.355 4.0031 18.1903 5.30252 18.1903 6.32349C18.1903 7.99417 18.5616 8.1798 20.6035 7.71573C24.9659 6.60194 27.5647 11.5212 24.0377 14.2128C22.4598 15.4194 22.4598 15.6051 24.0377 16.8117C27.5647 19.5033 24.9659 24.4225 20.6035 23.3087C18.5616 22.8447 18.1903 23.0303 18.1903 24.701C18.1903 25.7219 17.355 27.0214 16.334 27.5783C13.9208 28.8777 10.7651 27.2998 10.7651 24.701C10.7651 23.0303 10.3938 22.8447 8.35187 23.3087C3.98954 24.4225 1.3907 19.5033 5.01051 16.8117C6.49556 15.6051 6.49556 15.4194 4.91769 14.2128C1.3907 11.5212 3.98954 6.60194 8.35187 7.71573C10.3938 8.1798 10.7651 7.99417 10.7651 6.41631C10.7651 5.30252 11.5076 4.0031 12.4358 3.53903C14.3849 2.33242 14.2921 2.33242 16.4268 3.44621Z" fill="black"/>
<path d="M10.9504 11.9852C9.55819 13.3774 9.55819 17.647 10.9504 19.0392C12.3427 20.4314 16.6122 20.4314 18.0044 19.0392C19.3966 17.647 19.3966 13.3774 18.0044 11.9852C17.3547 11.3355 15.7768 10.8714 14.4774 10.8714C13.178 10.8714 11.6001 11.3355 10.9504 11.9852ZM16.3337 14.2128C17.3547 15.3266 17.2619 15.8835 16.0553 17.1829C14.5702 18.5751 14.3846 18.5751 12.8996 17.1829C11.6929 15.8835 11.6001 15.3266 12.6211 14.2128C13.2708 13.3774 14.1062 12.7277 14.4774 12.7277C14.8487 12.7277 15.684 13.3774 16.3337 14.2128Z" fill="black"/>
</svg>
