<svg width="28" height="34" viewBox="0 0 28 34" fill="none" xmlns="http://www.w3.org/2000/svg">
<path fill-rule="evenodd" clip-rule="evenodd" d="M0.27832 7.32658C0.27832 4.9552 2.17072 3.11887 4.52019 1.94414C6.93867 0.734899 10.199 0.0202637 13.7373 0.0202637C17.2756 0.0202637 20.536 0.734899 22.9545 1.94414C25.3039 3.11887 27.1963 4.9552 27.1963 7.32658V25.7847C27.1963 28.156 25.3039 29.9924 22.9545 31.1671C20.536 32.3763 17.2756 33.091 13.7373 33.091C10.199 33.091 6.93867 32.3763 4.52019 31.1671C2.17072 29.9924 0.27832 28.156 0.27832 25.7847V7.32658ZM2.58558 7.32658C2.58558 6.29993 3.44783 5.05991 5.55203 4.00781C7.58723 2.99021 10.4796 2.32752 13.7373 2.32752C16.9951 2.32752 19.8874 2.99021 21.9226 4.00781C24.0268 5.05991 24.8891 6.29993 24.8891 7.32658C24.8891 8.35323 24.0268 9.59325 21.9226 10.6454C19.8874 11.663 16.9951 12.3256 13.7373 12.3256C10.4796 12.3256 7.58723 11.663 5.55203 10.6454C3.44783 9.59325 2.58558 8.35323 2.58558 7.32658ZM2.58558 25.7847C2.58558 26.8113 3.44783 28.0513 5.55203 29.1034C7.58723 30.121 10.4796 30.7837 13.7373 30.7837C16.9951 30.7837 19.8874 30.121 21.9226 29.1034C24.0268 28.0513 24.8891 26.8113 24.8891 25.7847V20.7198C24.3096 21.182 23.6522 21.5892 22.9545 21.9381C20.536 23.1473 17.2756 23.8619 13.7373 23.8619C10.199 23.8619 6.93867 23.1473 4.52019 21.9381C3.82248 21.5892 3.16508 21.182 2.58558 20.7198V25.7847ZM24.8891 11.4907V16.5556C24.8891 17.5823 24.0268 18.8223 21.9226 19.8744C19.8874 20.892 16.9951 21.5547 13.7373 21.5547C10.4796 21.5547 7.58723 20.892 5.55203 19.8744C3.44783 18.8223 2.58558 17.5823 2.58558 16.5556V11.4907C3.16508 11.953 3.82248 12.3602 4.52019 12.709C6.93867 13.9183 10.199 14.6329 13.7373 14.6329C17.2756 14.6329 20.536 13.9183 22.9545 12.709C23.6522 12.3602 24.3096 11.953 24.8891 11.4907Z" fill="#191D27"/>
</svg>
