<svg width="33" height="31" viewBox="0 0 33 31" fill="none" xmlns="http://www.w3.org/2000/svg">
<path fill-rule="evenodd" clip-rule="evenodd" d="M23.9668 0.460849C22.5889 0.276255 20.8348 0.276278 18.648 0.276307H13.6969C11.5101 0.276278 9.75591 0.276255 8.3781 0.460849C6.95132 0.652004 5.76174 1.05929 4.81823 1.9995C3.83405 2.98024 3.43111 4.22828 3.2495 5.73223L3.24061 5.8058L3.24417 6.09701C2.92785 6.30378 2.6307 6.54362 2.35218 6.82213C1.23663 7.93768 0.741561 9.35224 0.506592 11.0999C0.278278 12.7981 0.278297 14.9679 0.278321 17.7074V17.8756L0.278431 18.5207C0.279893 20.9423 0.297503 22.9279 0.506592 24.4831C0.741561 26.2307 1.23663 27.6453 2.35218 28.7609C3.46773 29.8764 4.88229 30.3715 6.62996 30.6064C8.32814 30.8348 10.498 30.8347 13.2375 30.8347H19.3683C22.1077 30.8347 24.2776 30.8348 25.9757 30.6064C27.7234 30.3715 29.138 29.8764 30.2535 28.7609C31.3691 27.6453 31.8641 26.2307 32.0991 24.4831C32.3274 22.7849 32.3274 20.615 32.3274 17.8756V17.7074C32.3274 14.9679 32.3274 12.7981 32.0991 11.0999C31.8641 9.35224 31.3691 7.93768 30.2535 6.82213C29.9005 6.46907 29.5175 6.17817 29.1034 5.93798V5.799L29.0954 5.73223C28.9137 4.22828 28.5108 2.98024 27.5266 1.9995C26.5831 1.05929 25.3935 0.652004 23.9668 0.460849ZM2.5152 19.0435C2.51983 21.2424 2.54829 22.8884 2.72263 24.1851C2.92427 25.6849 3.3024 26.5489 3.93326 27.1798C4.56412 27.8106 5.42817 28.1888 6.9279 28.3904C8.4598 28.5964 10.4791 28.5987 13.3215 28.5987H19.2842C22.1266 28.5987 24.1459 28.5964 25.6778 28.3904C26.8168 28.2373 27.5891 27.9823 28.1711 27.5922L24.1657 23.9873C23.0035 22.9413 21.2727 22.8372 19.9935 23.7362L19.549 24.0486C17.9192 25.194 15.7019 25.0019 14.2933 23.5933L7.89878 17.1988C7.03865 16.3387 5.65896 16.2928 4.74352 17.0938L2.5152 19.0435ZM25.6615 22.3253L29.5196 25.7976C29.6773 25.3561 29.7965 24.8292 29.8831 24.1851C30.089 22.6532 30.0914 20.6339 30.0914 17.7915C30.0914 14.9491 30.089 12.9297 29.8831 11.3979C29.6814 9.89812 29.3033 9.03407 28.6724 8.40321C28.0416 7.77235 27.1775 7.39422 25.6778 7.19258C24.1459 6.98662 22.1266 6.98425 19.2842 6.98425H13.3215C10.4791 6.98425 8.4598 6.98662 6.9279 7.19258C5.42817 7.39422 4.56412 7.77235 3.93326 8.40321C3.3024 9.03407 2.92427 9.89812 2.72263 11.3979C2.5609 12.6008 2.52471 14.1045 2.51662 16.0712L3.27112 15.411C5.07246 13.8349 7.78735 13.9253 9.47985 15.6178L15.8744 22.0123C16.5146 22.6525 17.5225 22.7398 18.2633 22.2192L18.7078 21.9068C20.8399 20.4084 23.7245 20.582 25.6615 22.3253ZM6.39654 3.58335C6.03884 3.93979 5.78243 4.406 5.61181 5.15365C5.9378 5.08203 6.27709 5.02398 6.62996 4.97654C8.32814 4.74823 10.498 4.74825 13.2374 4.74827H19.3683C22.1077 4.74825 24.2776 4.74823 25.9757 4.97654C26.2308 5.01084 26.4789 5.05068 26.7199 5.09719C26.5493 4.38237 26.2969 3.93073 25.9483 3.58335C25.4898 3.12643 24.8501 2.83516 23.6698 2.67703C22.4578 2.51465 20.8539 2.51229 18.5658 2.51229H13.779C11.491 2.51229 9.88704 2.51465 8.67502 2.67703C7.49476 2.83516 6.85505 3.12643 6.39654 3.58335Z" fill="#1C274C"/>
<path fill-rule="evenodd" clip-rule="evenodd" d="M24.5015 9.22023C22.6491 9.22023 21.1475 10.7219 21.1475 12.5742C21.1475 14.4266 22.6491 15.9282 24.5015 15.9282C26.3538 15.9282 27.8554 14.4266 27.8554 12.5742C27.8554 10.7219 26.3538 9.22023 24.5015 9.22023ZM24.5015 11.4562C23.884 11.4562 23.3835 11.9568 23.3835 12.5742C23.3835 13.1917 23.884 13.6922 24.5015 13.6922C25.1189 13.6922 25.6194 13.1917 25.6194 12.5742C25.6194 11.9568 25.1189 11.4562 24.5015 11.4562Z" fill="#1C274C"/>
</svg>
