<svg width="34" height="40" viewBox="0 0 34 40" fill="none" xmlns="http://www.w3.org/2000/svg">
<path fill-rule="evenodd" clip-rule="evenodd" d="M7.25332 0.240968H20.0042C20.798 0.240938 21.4827 0.240912 22.0446 0.291836C22.6387 0.345686 23.227 0.464914 23.7815 0.785055C24.3989 1.14149 24.9116 1.65416 25.268 2.27152C25.5881 2.82602 25.7074 3.41435 25.7612 4.00851C25.7819 4.2368 25.7942 4.48538 25.8015 4.75331L26.3879 4.75331C27.1538 4.7533 27.7933 4.75329 28.3188 4.78755C28.8656 4.8232 29.3828 4.90001 29.8866 5.09837C31.168 5.60288 32.1823 6.61711 32.6868 7.89855C32.8851 8.40238 32.9619 8.91952 32.9976 9.46636C33.0319 9.99187 33.0318 10.6314 33.0318 11.3974V11.4408C33.0318 11.5143 33.0319 11.5867 33.032 11.6583C33.033 12.8458 33.0338 13.7708 32.7485 14.5784C32.3344 15.7509 31.4953 16.7252 30.3973 17.3086C29.6409 17.7105 28.726 17.847 27.5515 18.0221C27.4807 18.0327 27.409 18.0434 27.3364 18.0543L19.9783 19.158C18.477 19.3832 17.4765 19.5358 16.7349 19.7443C16.0299 19.9426 15.7266 20.1487 15.529 20.3781C15.2958 20.6489 15.1382 21.0282 15.0551 21.918C15.3174 21.9294 15.5636 21.948 15.7896 21.9784C16.4313 22.0646 17.1094 22.2676 17.6672 22.8254C18.225 23.3831 18.4279 24.0613 18.5142 24.7029C18.5925 25.2856 18.5924 26.0018 18.5923 26.783V34.1643C18.5924 34.9455 18.5925 35.6618 18.5142 36.2444C18.4279 36.886 18.225 37.5642 17.6672 38.122C17.1094 38.6797 16.4313 38.8827 15.7896 38.969C15.207 39.0473 14.4907 39.0472 13.7095 39.0471H13.548C12.7668 39.0472 12.0505 39.0473 11.4679 38.969C10.8263 38.8827 10.1481 38.6797 9.59033 38.122C9.03256 37.5642 8.8296 36.886 8.74334 36.2444C8.665 35.6618 8.66509 34.9455 8.66518 34.1643V26.783C8.66509 26.0018 8.665 25.2856 8.74334 24.7029C8.8296 24.0613 9.03256 23.3831 9.59033 22.8254C10.1481 22.2676 10.8263 22.0646 11.4679 21.9784C11.7318 21.9429 12.0232 21.9235 12.3356 21.9129C12.4299 20.6426 12.6912 19.5245 13.4775 18.6113C14.1545 17.8253 15.0218 17.4136 16.002 17.138C16.927 16.8779 18.0977 16.7023 19.4923 16.4932L26.9348 15.3768C28.4294 15.1526 28.836 15.0723 29.1269 14.9178C29.626 14.6526 30.0074 14.2097 30.1956 13.6768C30.3053 13.3662 30.3244 12.9521 30.3244 11.4408C30.3244 10.6201 30.3238 10.0694 30.2959 9.64249C30.2688 9.227 30.2202 9.02395 30.1676 8.89037C29.9383 8.3079 29.4772 7.84688 28.8948 7.61756C28.7612 7.56497 28.5582 7.51631 28.1427 7.48922C27.7157 7.46139 27.165 7.46072 26.3444 7.46072H25.8015C25.7942 7.72865 25.7819 7.97723 25.7612 8.20552C25.7074 8.79968 25.5881 9.38801 25.268 9.94251C24.9116 10.5599 24.3989 11.0725 23.7815 11.429C23.227 11.7491 22.6387 11.8683 22.0446 11.9222C21.4827 11.9731 20.798 11.9731 20.0042 11.9731H7.25332C6.45953 11.9731 5.77484 11.9731 5.21297 11.9222C4.61882 11.8683 4.03049 11.7491 3.47599 11.429C2.85863 11.0725 2.34596 10.5599 1.98952 9.94251C1.66938 9.38801 1.55015 8.79968 1.4963 8.20552C1.47372 7.95635 1.46116 7.68303 1.45417 7.38674C0.92384 7.2034 0.542969 6.69969 0.542969 6.10702C0.542969 5.51435 0.923839 5.01063 1.45417 4.82729C1.46116 4.531 1.47372 4.25768 1.4963 4.00851C1.55015 3.41435 1.66938 2.82602 1.98952 2.27152C2.34596 1.65416 2.85862 1.14149 3.47599 0.785055C4.03049 0.464914 4.61882 0.345686 5.21297 0.291836C5.77484 0.240912 6.45953 0.240938 7.25332 0.240968ZM13.6372 24.6076C13.6344 24.6076 13.6316 24.6076 13.6288 24.6076C12.7396 24.6076 12.209 24.6105 11.8286 24.6616C11.6544 24.6851 11.5671 24.7127 11.5278 24.7288C11.5186 24.7326 11.5127 24.7355 11.5092 24.7373L11.5048 24.7398L11.5023 24.7442C11.5005 24.7477 11.4976 24.7537 11.4938 24.7628C11.4776 24.8021 11.45 24.8894 11.4266 25.0637C11.3755 25.444 11.3726 25.9747 11.3726 26.8638V34.0835C11.3726 34.9727 11.3755 35.5033 11.4266 35.8837C11.45 36.058 11.4776 36.1452 11.4938 36.1846C11.4976 36.1937 11.5005 36.1996 11.5023 36.2031L11.5048 36.2076L11.5092 36.21C11.5127 36.2118 11.5186 36.2147 11.5278 36.2185C11.5671 36.2347 11.6544 36.2623 11.8286 36.2857C12.209 36.3368 12.7396 36.3397 13.6288 36.3397C14.5179 36.3397 15.0486 36.3368 15.4289 36.2857C15.6032 36.2623 15.6905 36.2347 15.7298 36.2185C15.7362 36.2158 15.7411 36.2136 15.7446 36.2119C15.7461 36.2112 15.7473 36.2105 15.7484 36.21L15.7528 36.2076L15.7552 36.2031C15.7571 36.1996 15.76 36.1937 15.7637 36.1846C15.7799 36.1452 15.8075 36.058 15.8309 35.8837C15.8821 35.5033 15.8849 34.9727 15.8849 34.0835V26.8638C15.8849 25.9747 15.8821 25.444 15.8309 25.0637C15.8075 24.8894 15.7799 24.8021 15.7637 24.7628C15.76 24.7537 15.7571 24.7477 15.7552 24.7442L15.7527 24.7398L15.7484 24.7373C15.7461 24.7361 15.7427 24.7345 15.7382 24.7324C15.7357 24.7313 15.7329 24.7301 15.7298 24.7288C15.6905 24.7127 15.6032 24.6851 15.4289 24.6616C15.0498 24.6107 14.5213 24.6076 13.6372 24.6076ZM5.45735 2.98819C5.05098 3.02502 4.90345 3.08715 4.82969 3.12974C4.62391 3.24855 4.45302 3.41944 4.3342 3.62523C4.29162 3.69898 4.22949 3.84651 4.19266 4.25288C4.15414 4.67787 4.15284 5.23864 4.15284 6.10702C4.15284 6.97539 4.15414 7.53616 4.19266 7.96115C4.22949 8.36752 4.29162 8.51505 4.3342 8.5888C4.45302 8.79459 4.6239 8.96548 4.82969 9.08429C4.90345 9.12687 5.05098 9.18901 5.45735 9.22584C5.88234 9.26436 6.44311 9.26565 7.31148 9.26565H19.946C20.8144 9.26565 21.3752 9.26436 21.8002 9.22584C22.2065 9.18901 22.3541 9.12687 22.4278 9.08429C22.6336 8.96548 22.8045 8.79459 22.9233 8.5888C22.9659 8.51505 23.028 8.36752 23.0649 7.96115C23.1034 7.53616 23.1047 6.97539 23.1047 6.10702C23.1047 5.23864 23.1034 4.67787 23.0649 4.25288C23.028 3.84651 22.9659 3.69898 22.9233 3.62523C22.8045 3.41944 22.6336 3.24855 22.4278 3.12974C22.3541 3.08715 22.2065 3.02502 21.8002 2.98819C21.3752 2.94967 20.8144 2.94838 19.946 2.94838H7.31148C6.44311 2.94838 5.88234 2.94967 5.45735 2.98819ZM11.5048 24.7398C11.5054 24.7393 11.5055 24.7391 11.5048 24.7398C11.504 24.7406 11.5043 24.7404 11.5048 24.7398Z" fill="#191D27"/>
</svg>
