<svg width="32" height="35" viewBox="0 0 32 35" fill="none" xmlns="http://www.w3.org/2000/svg">
<path d="M30.7489 24.5337L27.1983 22.5349L30.2752 20.7658C30.4102 20.6882 30.5281 20.5854 30.6223 20.4634C30.7165 20.3414 30.7852 20.2024 30.8243 20.0545C30.8635 19.9066 30.8724 19.7527 30.8505 19.6014C30.8286 19.4501 30.7764 19.3046 30.6969 19.173C30.6173 19.0414 30.5119 18.9264 30.3868 18.8345C30.2616 18.7427 30.1191 18.6757 29.9675 18.6375C29.8158 18.5994 29.6579 18.5907 29.5027 18.612C29.3476 18.6334 29.1983 18.6843 29.0634 18.7618L24.825 21.1988L18.4344 17.601L24.8239 14.0038L29.0636 16.4405C29.1985 16.5181 29.3478 16.569 29.5029 16.5903C29.6581 16.6116 29.816 16.6029 29.9677 16.5647C30.1194 16.5264 30.2618 16.4594 30.3869 16.3675C30.5121 16.2756 30.6174 16.1605 30.6969 16.0288C30.8575 15.7631 30.9033 15.4459 30.8241 15.1473C30.745 14.8486 30.5474 14.5927 30.2749 14.4361L27.1976 12.6676L30.7489 10.6683C31.0206 10.513 31.2183 10.2591 31.2988 9.96215C31.3794 9.6652 31.3361 9.34925 31.1786 9.08324C31.0211 8.81724 30.7621 8.62278 30.4581 8.5423C30.1541 8.46182 29.8298 8.50186 29.556 8.65367L26.0055 10.6526L25.9732 7.16915C25.9673 6.52676 25.4268 6.00767 24.7696 6.01651C24.613 6.01787 24.4581 6.04931 24.3139 6.10902C24.1698 6.16874 24.0391 6.25557 23.9293 6.36454C23.8195 6.47352 23.7328 6.60252 23.6742 6.74417C23.6156 6.88582 23.5861 7.03734 23.5875 7.19008L23.6319 11.9887L17.2417 15.5864V8.39172L21.5261 6.03063C21.6625 5.95546 21.7823 5.85484 21.8788 5.73451C21.9753 5.61418 22.0466 5.47649 22.0885 5.32931C22.1304 5.18212 22.1422 5.02833 22.1232 4.8767C22.1042 4.72508 22.0547 4.57859 21.9776 4.4456C21.9005 4.31262 21.7973 4.19574 21.6739 4.10164C21.5505 4.00754 21.4093 3.93807 21.2584 3.89718C21.1074 3.8563 20.9497 3.8448 20.7942 3.86335C20.6387 3.8819 20.4885 3.93014 20.3521 4.0053L17.2417 5.71952V1.72128C17.2417 1.41279 17.116 1.11693 16.8923 0.898793C16.6686 0.680654 16.3652 0.558105 16.0488 0.558105C15.7324 0.558105 15.429 0.680654 15.2053 0.898793C14.9816 1.11693 14.8559 1.41279 14.8559 1.72128V5.71952L11.7455 4.00546C11.47 3.85366 11.144 3.81477 10.8392 3.89734C10.5344 3.97991 10.2756 4.17718 10.12 4.44576C9.96428 4.71433 9.92439 5.03221 10.0091 5.32946C10.0938 5.62671 10.2961 5.87898 10.5715 6.03078L14.8557 8.39188V15.5864L8.4655 11.9887L8.50987 7.19008C8.5113 7.03734 8.48185 6.88582 8.42322 6.74417C8.36458 6.60252 8.2779 6.47352 8.16813 6.36454C8.05836 6.25557 7.92765 6.16874 7.78347 6.10902C7.63928 6.04931 7.48444 6.01787 7.3278 6.01651H7.31682C7.00234 6.01658 6.70061 6.13774 6.47727 6.35363C6.25393 6.56952 6.12706 6.86267 6.12425 7.1693L6.09196 10.6526L2.54144 8.65367C2.2676 8.50186 1.94329 8.46182 1.63929 8.5423C1.3353 8.62278 1.07628 8.81724 0.918776 9.08324C0.761271 9.34925 0.718061 9.6652 0.798576 9.96215C0.879092 10.2591 1.0768 10.513 1.34854 10.6683L4.8997 12.6676L1.82188 14.4364C1.55172 14.5942 1.3565 14.8498 1.27881 15.1474C1.20112 15.445 1.24726 15.7605 1.40717 16.025C1.56708 16.2896 1.82778 16.4818 2.13242 16.5596C2.43706 16.6375 2.76093 16.5948 3.03338 16.4408L7.27356 14.0041L13.6632 17.6013L7.27244 21.1991L3.03338 18.7617C2.76085 18.605 2.43566 18.5604 2.12934 18.6375C1.82302 18.7146 1.56064 18.9071 1.39992 19.1728C1.32035 19.3044 1.26814 19.45 1.24627 19.6012C1.2244 19.7525 1.2333 19.9064 1.27245 20.0543C1.31161 20.2022 1.38025 20.3411 1.47447 20.4631C1.56869 20.5852 1.68663 20.6879 1.82157 20.7655L4.89891 22.5347L1.34839 24.5335C1.07664 24.6889 0.878933 24.9427 0.798417 25.2397C0.717902 25.5366 0.761111 25.8526 0.918617 26.1186C1.07612 26.3846 1.33514 26.5791 1.63914 26.6595C1.94313 26.74 2.26744 26.7 2.54128 26.5482L6.0918 24.5492L6.12409 28.0328C6.1269 28.3395 6.25377 28.6326 6.47711 28.8485C6.70045 29.0644 7.00218 29.1856 7.31666 29.1856L7.32764 29.1855C7.48428 29.1841 7.63912 29.1527 7.78331 29.093C7.9275 29.0333 8.05821 28.9464 8.16797 28.8375C8.27774 28.7285 8.36442 28.5995 8.42306 28.4578C8.48169 28.3162 8.51114 28.1647 8.50971 28.0119L8.46534 23.2131L14.8557 19.6155V26.8103L10.5715 29.1714C10.2961 29.3232 10.0938 29.5754 10.0091 29.8727C9.92439 30.1699 9.96428 30.4878 10.12 30.7564C10.2756 31.025 10.5344 31.2222 10.8392 31.3048C11.144 31.3874 11.47 31.3485 11.7455 31.1967L14.8559 29.4826V33.4809C14.8559 33.7894 14.9816 34.0852 15.2053 34.3034C15.429 34.5215 15.7324 34.644 16.0488 34.644C16.3652 34.644 16.6686 34.5215 16.8923 34.3034C17.116 34.0852 17.2417 33.7894 17.2417 33.4809V29.4826L20.3521 31.1967C20.4885 31.2719 20.6387 31.3202 20.7942 31.3387C20.9497 31.3573 21.1075 31.3458 21.2584 31.305C21.4094 31.2641 21.5506 31.1946 21.674 31.1004C21.7974 31.0063 21.9006 30.8894 21.9776 30.7564C22.0547 30.6234 22.1042 30.4769 22.1232 30.3253C22.1422 30.1737 22.1304 30.0199 22.0885 29.8727C22.0466 29.7255 21.9753 29.5878 21.8788 29.4675C21.7823 29.3471 21.6625 29.2465 21.5261 29.1714L17.2417 26.8103V19.6156L23.6319 23.2131L23.5864 28.0118C23.585 28.1645 23.6144 28.316 23.673 28.4577C23.7316 28.5994 23.8182 28.7284 23.9279 28.8374C24.0377 28.9464 24.1684 29.0333 24.3125 29.093C24.4567 29.1528 24.6115 29.1842 24.7682 29.1856L24.7795 29.1858C25.0939 29.1857 25.3956 29.0646 25.6189 28.8488C25.8423 28.633 25.9692 28.3399 25.9721 28.0333L26.0051 24.5492L29.5561 26.5483C29.6918 26.6247 29.8416 26.6743 29.9969 26.6942C30.1522 26.7142 30.31 26.7041 30.4613 26.6646C30.6126 26.625 30.7545 26.5568 30.8788 26.4638C31.003 26.3708 31.1073 26.2549 31.1856 26.1226C31.2639 25.9903 31.3148 25.8443 31.3352 25.6928C31.3556 25.5414 31.3453 25.3875 31.3047 25.2399C31.2642 25.0924 31.1942 24.9541 31.0988 24.8329C31.0035 24.7117 30.8845 24.6101 30.7489 24.5337Z" fill="#191D27"/>
</svg>
