<svg width="18" height="18" viewBox="0 0 18 18" fill="none" xmlns="http://www.w3.org/2000/svg">
<path d="M1.36035 6.1336C1.36035 4.85007 1.36035 4.2083 1.70236 3.83399C1.82379 3.7011 1.97137 3.59473 2.13584 3.52156C2.5991 3.31546 3.20793 3.51841 4.4256 3.9243C5.35523 4.23418 5.82005 4.38911 6.28973 4.37308C6.46223 4.36719 6.63372 4.34422 6.80169 4.30452C7.25904 4.19641 7.66671 3.92463 8.48205 3.38107L9.68618 2.57832C10.7306 1.88204 11.2528 1.5339 11.8523 1.45362C12.4517 1.37335 13.0471 1.57182 14.2379 1.96875L15.2525 2.30695C16.1149 2.5944 16.5461 2.73813 16.7927 3.08031C17.0393 3.42248 17.0393 3.87699 17.0393 4.78601V11.8662C17.0393 13.1498 17.0393 13.7915 16.6973 14.1658C16.5759 14.2987 16.4283 14.4051 16.2638 14.4783C15.8006 14.6844 15.1917 14.4814 13.9741 14.0755C13.0444 13.7657 12.5796 13.6107 12.1099 13.6268C11.9374 13.6327 11.7659 13.6556 11.598 13.6953C11.1406 13.8034 10.7329 14.0752 9.9176 14.6188L8.71348 15.4215C7.66906 16.1178 7.14685 16.4659 6.54741 16.5462C5.94796 16.6265 5.35255 16.428 4.16173 16.0311L3.14716 15.6929C2.28479 15.4054 1.85361 15.2617 1.60698 14.9195C1.36035 14.5774 1.36035 14.1228 1.36035 13.2138V6.1336Z" stroke="white" stroke-width="1.30658"/>
<path opacity="0.5" d="M6 4V16.074" stroke="white" stroke-width="1.30658"/>
<path opacity="0.5" d="M12 2V14.1947" stroke="white" stroke-width="1.30658"/>
</svg>
