<svg width="110" height="120" viewBox="0 0 110 120" fill="none" xmlns="http://www.w3.org/2000/svg">
<g filter="url(#filter0_d_1_5389)">
<path fill-rule="evenodd" clip-rule="evenodd" d="M55.916 60.7484C56.8518 59.3464 58.6955 59.0352 60.3187 58.5806C69.1186 56.1161 75.5828 47.9114 75.5828 38.1685C75.5828 26.4776 66.2741 17 54.7914 17C43.3087 17 34 26.4776 34 38.1685C34 47.8601 40.398 56.0304 49.127 58.5418C50.2423 58.8626 51.424 59.1129 52.2989 59.8752C52.6267 60.1609 52.9301 60.5017 53.1746 60.9071C53.551 61.5301 53.7431 62.0036 53.8604 62.3567C54.0934 63.0576 54.2759 63.2877 54.5184 63.2877C54.761 63.2877 54.9261 63.0461 55.1504 62.3337C55.2616 61.9824 55.4477 61.5151 55.8154 60.9071C55.8479 60.8531 55.8815 60.8002 55.916 60.7484ZM54.4454 69.2155C55.5937 69.2155 56.5247 68.2677 56.5247 67.0986C56.5247 65.9295 55.5937 64.9817 54.4454 64.9817C53.2972 64.9817 52.3662 65.9295 52.3662 67.0986C52.3662 68.2677 53.2972 69.2155 54.4454 69.2155Z" fill="url(#paint0_linear_1_5389)"/>
</g>
<path d="M49.269 31.7865C49.269 31.1574 49.7789 30.6475 50.408 30.6475H59.1747C59.8038 30.6475 60.3137 31.1574 60.3137 31.7865V45.4653C60.3137 46.3687 59.3125 46.9126 58.5547 46.4209L55.4113 44.3815C55.0342 44.1369 54.5485 44.1369 54.1714 44.3815L51.028 46.4209C50.2702 46.9126 49.269 46.3687 49.269 45.4653V31.7865Z" fill="white"/>
<defs>
<filter id="filter0_d_1_5389" x="0.166153" y="0.0830765" width="109.25" height="119.883" filterUnits="userSpaceOnUse" color-interpolation-filters="sRGB">
<feFlood flood-opacity="0" result="BackgroundImageFix"/>
<feColorMatrix in="SourceAlpha" type="matrix" values="0 0 0 0 0 0 0 0 0 0 0 0 0 0 0 0 0 0 127 0" result="hardAlpha"/>
<feOffset dy="16.9169"/>
<feGaussianBlur stdDeviation="16.9169"/>
<feComposite in2="hardAlpha" operator="out"/>
<feColorMatrix type="matrix" values="0 0 0 0 0.780392 0 0 0 0 0.27451 0 0 0 0 0.960784 0 0 0 0.3 0"/>
<feBlend mode="normal" in2="BackgroundImageFix" result="effect1_dropShadow_1_5389"/>
<feBlend mode="normal" in="SourceGraphic" in2="effect1_dropShadow_1_5389" result="shape"/>
</filter>
<linearGradient id="paint0_linear_1_5389" x1="54.7914" y1="17" x2="54.7914" y2="69.2155" gradientUnits="userSpaceOnUse">
<stop stop-color="#DB76FF"/>
<stop offset="1" stop-color="#B317EA"/>
</linearGradient>
</defs>
</svg>
