<svg width="161" height="172" viewBox="0 0 161 172" fill="none" xmlns="http://www.w3.org/2000/svg">
<g filter="url(#filter0_d_1_5392)">
<path fill-rule="evenodd" clip-rule="evenodd" d="M83.8186 72.1707C93.8609 70.6733 101.571 61.8675 101.571 51.227C101.571 39.5361 92.2623 30.0586 80.7797 30.0586C69.2971 30.0586 59.9884 39.5361 59.9884 51.227C59.9884 61.5365 67.2283 70.1246 76.8125 72.0105C77.6122 72.3672 78.564 72.9725 79.1629 73.9655C79.5393 74.5885 79.7314 75.062 79.8488 75.4151C80.0817 76.1161 80.2643 76.3462 80.5068 76.3462C80.7493 76.3462 80.9144 76.1046 81.1387 75.3921C81.25 75.0408 81.436 74.5735 81.8037 73.9655C82.32 73.1079 83.1006 72.5397 83.8186 72.1707ZM80.4338 82.2739C81.582 82.2739 82.513 81.3261 82.513 80.157C82.513 78.9879 81.582 78.0401 80.4338 78.0401C79.2855 78.0401 78.3545 78.9879 78.3545 80.157C78.3545 81.3261 79.2855 82.2739 80.4338 82.2739Z" fill="url(#paint0_linear_1_5392)"/>
</g>
<path d="M79.8664 42.9739C80.2188 42.1834 81.3408 42.1834 81.6931 42.9739L83.1338 46.2059C83.2791 46.5319 83.5872 46.7558 83.9422 46.7932L87.4613 47.1647C88.322 47.2555 88.6687 48.3226 88.0258 48.902L85.3971 51.2709C85.1319 51.5099 85.0143 51.8721 85.0883 52.2213L85.8225 55.6829C86.0021 56.5295 85.0944 57.189 84.3447 56.7566L81.2794 54.9886C80.9702 54.8103 80.5893 54.8103 80.2801 54.9886L77.2148 56.7566C76.4651 57.189 75.5574 56.5295 75.737 55.6829L76.4712 52.2213C76.5453 51.8721 76.4276 51.5099 76.1624 51.2709L73.5338 48.902C72.8908 48.3226 73.2376 47.2555 74.0982 47.1647L77.6173 46.7932C77.9723 46.7558 78.2804 46.5319 78.4257 46.2059L79.8664 42.9739Z" fill="white"/>
<defs>
<filter id="filter0_d_1_5392" x="0.582558" y="0.355671" width="160.394" height="171.027" filterUnits="userSpaceOnUse" color-interpolation-filters="sRGB">
<feFlood flood-opacity="0" result="BackgroundImageFix"/>
<feColorMatrix in="SourceAlpha" type="matrix" values="0 0 0 0 0 0 0 0 0 0 0 0 0 0 0 0 0 0 127 0" result="hardAlpha"/>
<feOffset dy="29.7029"/>
<feGaussianBlur stdDeviation="29.7029"/>
<feComposite in2="hardAlpha" operator="out"/>
<feColorMatrix type="matrix" values="0 0 0 0 1 0 0 0 0 0.270588 0 0 0 0 0.262745 0 0 0 0.3 0"/>
<feBlend mode="normal" in2="BackgroundImageFix" result="effect1_dropShadow_1_5392"/>
<feBlend mode="normal" in="SourceGraphic" in2="effect1_dropShadow_1_5392" result="shape"/>
</filter>
<linearGradient id="paint0_linear_1_5392" x1="80.7797" y1="30.0586" x2="80.7797" y2="82.2739" gradientUnits="userSpaceOnUse">
<stop stop-color="#FF7B7A"/>
<stop offset="1" stop-color="#FE2B29"/>
</linearGradient>
</defs>
</svg>
